<svg width="20" height="16" viewBox="0 0 20 16" fill="none" xmlns="http://www.w3.org/2000/svg">
<path d="M0.440231 0.707803C0.722196 0.339637 1.10457 0.132812 1.50327 0.132812C1.90197 0.132812 2.28434 0.339637 2.56631 0.707803L10.0091 10.4289L17.4518 0.707803C17.7354 0.350071 18.1152 0.152124 18.5095 0.156599C18.9037 0.161073 19.2808 0.36761 19.5596 0.731725C19.8384 1.09584 19.9965 1.5884 19.9999 2.10331C20.0034 2.61823 19.8518 3.1143 19.5779 3.48469L11.0721 14.5942C10.7902 14.9624 10.4078 15.1692 10.0091 15.1692C9.61038 15.1692 9.228 14.9624 8.94604 14.5942L0.440231 3.48469C0.158351 3.11642 0 2.61699 0 2.09625C0 1.5755 0.158351 1.07608 0.440231 0.707803Z" fill="black" fill-opacity="0.71"/>
</svg>
